<svg width="141" height="44" viewBox="0 0 141 44" fill="#ffffff" xmlns="http://www.w3.org/2000/svg">
    <path d="M121.544 33.2592C121.544 36.9227 123.731 38.7544 128.044 38.7544C131.412 38.7544 133.598 37.3363 133.598 34.9728C133.598 31.9002 130.23 31.132 126.271 30.1866C121.072 28.9457 114.926 27.5867 114.926 20.9097C114.926 15.3554 119.831 11.6919 127.63 11.6919C135.726 11.6919 140.275 15.1781 140.275 21.8551H133.244C133.067 18.2507 131.235 16.7735 127.394 16.7735C124.262 16.7735 122.253 18.1325 122.253 20.3188C122.253 23.5687 126.744 24.3959 131.294 25.5186C136.08 26.8185 140.925 28.5321 140.925 34.3819C140.925 40.2907 135.962 43.836 127.985 43.836C119.299 43.836 114.454 40.1726 114.276 33.2592H121.544Z" fill="#ffffff"></path>
    <path d="M102.931 39.05C100.568 42.2999 96.8452 43.5998 93.2998 43.5998C89.2818 43.5998 86.5638 42.0635 84.6729 39.4636C83.1957 37.3955 82.9003 34.2639 82.9003 29.8322V12.5193H89.9318V29.5959C89.9318 34.0866 90.5818 38.2228 95.5452 38.2228C97.7315 38.2228 99.386 37.4546 100.568 35.8592C101.749 34.2639 102.459 31.7821 102.459 28.0005V12.5193H109.549V43.009H102.931V39.05Z" fill="#ffffff"></path>
    <path d="M65.8946 4.95459H72.9852V12.5179H79.0122V17.9541H72.9852V32.3126C72.9852 36.0942 73.8124 37.8078 76.6487 37.8078C77.2987 37.8078 77.9486 37.8078 79.0713 37.5714V43.0076C77.4759 43.4212 76.1169 43.5394 74.5215 43.5394C68.4354 43.5394 65.8946 40.644 65.8946 33.7307V17.9541H60.9902V12.5179H65.8946V4.95459Z" fill="#ffffff"></path>
    <path d="M44.6113 11.6919C53.9473 11.6919 59.8561 18.1325 59.8561 27.764C59.8561 37.3954 53.9473 43.836 44.5522 43.836C35.2753 43.836 29.4255 37.3954 29.4255 27.764C29.4255 18.1325 35.3344 11.6919 44.6113 11.6919ZM44.6113 17.128C39.6478 17.128 36.8116 21.2051 36.8116 27.764C36.8116 34.2046 39.5888 38.3999 44.5522 38.3999C49.5747 38.3999 52.4701 34.3228 52.4701 27.764C52.4701 21.2051 49.5747 17.128 44.6113 17.128Z" fill="#ffffff"></path>
    <path d="M7.99252 0.109375V36.7442H28.2599V43.0076H0.488281V0.109375H7.99252Z" fill="#ffffff"></path>
    </svg>